<svg xmlns="http://www.w3.org/2000/svg" width="64" height="64" viewBox="0 0 64 64">
  <!-- Wordmark favicon: "el" (entregas + lu) in Instrument Serif italic, outlined to
       vector paths so it renders without loading a web font (browsers block external
       fonts in icon context). e = ink, l = accent red; matches the NavBar masthead. -->
  <rect width="64" height="64" rx="14" fill="#fafafa"/>
  <g transform="matrix(0.05578 0 0 -0.05578 15.278 52.442)">
    <path d="M129 -9Q76 -9 44.0 32.5Q12 74 12 150Q12 216 35.5 281.0Q59 346 97.0 399.0Q135 452 180.5 484.0Q226 516 269 516Q316 516 336.5 493.5Q357 471 357 433Q357 388 325.5 343.5Q294 299 237.5 264.0Q181 229 105 212Q83 207 82 187Q81 180 81.0 172.5Q81 165 81 158Q81 101 100.5 72.0Q120 43 154 43Q192 43 227.5 78.0Q263 113 287 177Q290 186 299 186Q305 186 306.5 181.0Q308 176 306 169Q274 81 228.5 36.0Q183 -9 129 -9ZM92 250Q90 243 94.5 238.5Q99 234 106 236Q168 253 210.0 287.5Q252 322 273.5 365.0Q295 408 295 449Q295 491 262 491Q233 491 199.0 457.0Q165 423 136.0 368.0Q107 313 92 250Z" fill="#1a1a1a"/>
    <path d="M74 -10Q41 -10 27.0 14.5Q13 39 26 95L153 640Q158 658 153.5 665.0Q149 672 135 673L105 676Q90 677 92 689Q94 698 106 700Q142 706 170.0 714.5Q198 723 215 737Q223 743 230 743Q242 743 239 728L91 94Q86 72 89.5 59.5Q93 47 108 47Q126 47 147.5 73.5Q169 100 196 174Q200 187 210 187Q225 187 218 169Q197 101 171.5 61.5Q146 22 121.0 6.0Q96 -10 74 -10Z" fill="#d11f1f" transform="translate(348 0)"/>
  </g>
</svg>
